<?xml version="1.0" encoding="UTF-8" standalone="no"?>
<!DOCTYPE svg PUBLIC "-//W3C//DTD SVG 1.1//EN" "http://www.w3.org/Graphics/SVG/1.1/DTD/svg11.dtd">
<svg width="100%" height="100%" viewBox="0 0 734 734" version="1.1" xmlns="http://www.w3.org/2000/svg" xmlns:xlink="http://www.w3.org/1999/xlink" xml:space="preserve" xmlns:serif="http://www.serif.com/" style="fill-rule:evenodd;clip-rule:evenodd;stroke-linejoin:round;stroke-miterlimit:2;">
    <g transform="matrix(1,0,0,1,-1704.58,-238.635)">
        <g transform="matrix(0.791144,0,0,0.791144,1666.48,200.501)">
            <path d="M672,192L672,240L720,240L720,192L672,192ZM112,256L112,896C112,904.777 119.223,912 128,912L456,912C469.166,912 480,922.834 480,936C480,949.166 469.166,960 456,960L128,960C92.891,960 64,931.109 64,896L64,256C64,220.891 92.891,192 128,192L672,192L672,240L128,240C119.223,240 112,247.223 112,256ZM960,256L960,488C960,501.166 949.166,512 936,512C922.834,512 912,501.166 912,488L912,256C912,247.223 904.777,240 896,240L720,240L720,192L896,192C931.109,192 960,220.891 960,256ZM304,192L352,192L304,192Z" style="fill-rule:nonzero;stroke:black;stroke-width:31.68px;"/>
        </g>
        <g transform="matrix(0.791144,0,0,0.791144,1666.48,200.501)">
            <path d="M936,400L104,400C90.834,400 80,410.834 80,424C80,437.166 90.834,448 104,448L936,448C949.166,448 960,437.166 960,424C960,410.834 949.166,400 936,400ZM200,544L504,544C504.968,543.866 505.944,543.799 506.921,543.799C518.595,543.799 528.201,553.405 528.201,565.079C528.201,566.056 528.134,567.032 528,568C528.134,568.968 528.201,569.944 528.201,570.921C528.201,582.595 518.595,592.201 506.921,592.201C505.944,592.201 504.968,592.134 504,592L200,592C199.032,592.134 198.056,592.201 197.079,592.201C185.405,592.201 175.799,582.595 175.799,570.921C175.799,569.944 175.866,568.968 176,568C175.866,567.032 175.799,566.056 175.799,565.079C175.799,553.405 185.405,543.799 197.079,543.799C198.056,543.799 199.032,543.866 200,544ZM200,656L504,656C517.166,656 528,666.834 528,680C528,693.166 517.166,704 504,704L200,704C186.834,704 176,693.166 176,680C176,666.834 186.834,656 200,656ZM200,768L504,768C517.166,768 528,778.834 528,792C528,805.166 517.166,816 504,816L200,816C186.834,816 176,805.166 176,792C176,778.834 186.834,768 200,768Z" style="fill-rule:nonzero;stroke:black;stroke-width:1.4px;"/>
        </g>
        <g transform="matrix(-0.791144,0,0,0.791144,2476.61,200.501)">
            <path d="M352,296L352,88C352,74.834 341.166,64 328,64C314.834,64 304,74.834 304,88L304,296C304,309.166 314.834,320 328,320C341.166,320 352,309.166 352,296ZM720,296L720,88C720,74.834 709.166,64 696,64C682.834,64 672,74.834 672,88L672,296C672,309.166 682.834,320 696,320C709.166,320 720,309.166 720,296Z" style="stroke:black;stroke-width:31.6px;"/>
        </g>
        <g transform="matrix(0.791144,0,0,0.791144,1672.63,206.651)">
            <path d="M950.72,609.76L862.24,521.28C856.433,515.34 848.467,511.988 840.16,511.988C831.853,511.988 823.887,515.34 818.08,521.28L752,587.36L558.08,781.12C554.438,784.88 551.701,789.422 550.08,794.4L515.52,912L513.28,919.84C510.756,929.429 512.827,939.666 518.88,947.52C524.883,955.318 534.159,959.927 544,960C547.031,959.979 550.045,959.549 552.96,958.72L678.24,921.76C683.352,920.447 687.969,917.665 691.52,913.76L693.28,912L720,886.24L740.48,864L928,676.48L950.08,654.24C956.12,648.422 959.537,640.387 959.537,632C959.537,623.613 956.12,615.578 950.08,609.76L950.72,609.76ZM668.64,891.84L600,912L544,928L548.96,912L580.96,803.2L608,775.68L696.32,864L668.64,891.84ZM800,760.8L718.56,842.24L629.92,753.6L796,587.52L800,592L884.48,676.64L800,760.8ZM906.56,654.08L818.08,565.44L840.16,544L928,631.84L906.56,654.08Z" style="fill-rule:nonzero;stroke:black;stroke-width:12.37px;"/>
        </g>
    </g>
</svg>
