<?xml version="1.0" encoding="UTF-8" standalone="no"?>
<!DOCTYPE svg PUBLIC "-//W3C//DTD SVG 1.1//EN" "http://www.w3.org/Graphics/SVG/1.1/DTD/svg11.dtd">
<svg width="100%" height="100%" viewBox="0 0 476 412" version="1.1" xmlns="http://www.w3.org/2000/svg" xmlns:xlink="http://www.w3.org/1999/xlink" xml:space="preserve" xmlns:serif="http://www.serif.com/" style="fill-rule:evenodd;clip-rule:evenodd;stroke-linejoin:round;stroke-miterlimit:2;">
    <g transform="matrix(1,0,0,1,-85.4884,-747.118)">
        <g id="payment" transform="matrix(0.501713,0,0,0.501713,65.7287,695.742)">
            <path d="M592.738,513.969C592.738,468.677 620.308,429.292 657.723,409.6C651.815,332.8 588.8,273.723 510.031,273.723C429.292,273.723 362.338,340.677 362.338,421.415C362.338,502.154 429.292,569.108 510.031,569.108C539.569,569.108 569.108,559.262 590.769,543.508L590.769,513.969L592.738,513.969ZM592.738,716.8L592.738,679.385C592.738,665.6 594.708,653.785 598.646,641.969L252.062,641.969C252.062,584.862 206.769,537.6 147.692,537.6L147.692,317.046C204.8,317.046 252.062,271.754 252.062,212.677L769.969,212.677C769.969,269.785 815.262,317.046 874.338,317.046L874.338,395.815L949.169,395.815C962.954,395.815 974.769,397.785 986.585,401.723L986.585,191.015C986.585,141.785 947.2,102.4 897.969,102.4L128,102.4C78.769,102.4 39.385,141.785 39.385,191.015L39.385,667.569C39.385,716.8 78.769,756.185 128,756.185L600.615,756.185C596.677,744.369 592.738,730.585 592.738,716.8ZM984.615,884.185C984.615,903.877 964.923,921.6 945.231,921.6L708.923,921.6C689.231,921.6 671.508,903.877 671.508,884.185L671.508,846.769C671.508,827.077 689.231,809.354 708.923,809.354L947.2,809.354C966.892,809.354 984.615,827.077 984.615,846.769L984.615,884.185ZM984.615,718.769C984.615,738.462 964.923,756.185 945.231,756.185L708.923,756.185C689.231,756.185 671.508,738.462 671.508,718.769L671.508,681.354C671.508,661.662 689.231,643.938 708.923,643.938L947.2,643.938C966.892,643.938 984.615,661.662 984.615,681.354L984.615,718.769ZM984.615,551.385C984.615,571.077 964.923,588.8 945.231,588.8L708.923,588.8C689.231,588.8 671.508,571.077 671.508,551.385L671.508,513.969C671.508,494.277 689.231,476.554 708.923,476.554L947.2,476.554C966.892,476.554 984.615,494.277 984.615,513.969L984.615,551.385Z" style="fill-rule:nonzero;"/>
        </g>
        <g id="appointment">
        </g>
    </g>
</svg>
