<?xml version="1.0" encoding="UTF-8" standalone="no"?>
<!DOCTYPE svg PUBLIC "-//W3C//DTD SVG 1.1//EN" "http://www.w3.org/Graphics/SVG/1.1/DTD/svg11.dtd">
<svg width="100%" height="100%" viewBox="0 0 476 502" version="1.1" xmlns="http://www.w3.org/2000/svg" xmlns:xlink="http://www.w3.org/1999/xlink" xml:space="preserve" xmlns:serif="http://www.serif.com/" style="fill-rule:evenodd;clip-rule:evenodd;stroke-linejoin:round;stroke-miterlimit:2;">
    <g transform="matrix(1,0,0,1,-85.4884,-85.3333)">
        <g id="schedule" transform="matrix(0.618779,0,0,0.618779,6.28469,32.5308)">
            <path d="M810.667,170.667L768,170.667L768,106.667C768,94.964 758.37,85.333 746.667,85.333L704,85.333C692.297,85.333 682.667,94.964 682.667,106.667L682.667,170.667L341.333,170.667L341.333,106.667C341.333,94.964 331.703,85.333 320,85.333L277.333,85.333C265.63,85.333 256,94.964 256,106.667L256,170.667L213.333,170.667C166.521,170.667 128,209.188 128,256L128,810.667C128,857.479 166.521,896 213.333,896L810.667,896C857.479,896 896,857.479 896,810.667L896,256C896,209.188 857.479,170.667 810.667,170.667ZM810.667,810.667L213.333,810.667L213.333,341.333L810.667,341.333L810.667,810.667ZM451.84,676.267C455.71,680.39 461.119,682.731 466.773,682.731C472.428,682.731 477.837,680.39 481.707,676.267L663.04,495.36C671.172,486.972 671.172,473.455 663.04,465.067L640,442.453C631.612,434.321 618.095,434.321 609.707,442.453L466.347,585.813L413.867,532.907C405.479,524.774 391.961,524.774 383.573,532.907L360.96,554.667C352.881,562.909 352.881,576.291 360.96,584.533L451.84,676.267Z" style="fill-rule:nonzero;"/>
        </g>
    </g>
</svg>
