<?xml version="1.0" encoding="UTF-8" standalone="no"?>
<!DOCTYPE svg PUBLIC "-//W3C//DTD SVG 1.1//EN" "http://www.w3.org/Graphics/SVG/1.1/DTD/svg11.dtd">
<svg width="100%" height="100%" viewBox="0 0 476 470" version="1.1" xmlns="http://www.w3.org/2000/svg" xmlns:xlink="http://www.w3.org/1999/xlink" xml:space="preserve" xmlns:serif="http://www.serif.com/" style="fill-rule:evenodd;clip-rule:evenodd;stroke-linejoin:round;stroke-miterlimit:2;">
    <g transform="matrix(1,0,0,1,-85.4884,-1194.92)">
        <g id="schedule" transform="matrix(0.700853,0,0,0.700853,36.2089,897.381)">
            <path d="M215.29,876.31C214.634,875.77 213.982,875.222 213.333,874.667L147.2,904.533C140.8,906.667 134.4,904.533 130.133,898.133L72.533,800C68.267,793.6 70.4,785.067 76.8,780.8L136.533,738.133C134.4,727.467 134.4,718.933 134.4,708.267C134.4,697.6 134.4,686.933 136.533,678.4L76.8,635.733C70.4,631.467 68.267,622.933 72.533,616.533L130.133,518.4C132.267,512 140.8,509.867 147.2,512L213.333,541.867C230.4,529.067 245.333,518.4 264.533,512L273.067,437.333C273.067,430.933 279.467,424.533 285.867,424.533L398.933,424.533C405.333,424.533 411.733,430.933 411.733,437.333L418.133,509.867C437.333,518.4 454.4,526.933 469.333,539.733L535.467,507.733C541.867,505.6 548.267,507.733 552.533,514.133L610.133,612.267C614.4,618.667 612.267,627.2 605.867,631.467L546.133,674.133C548.267,684.8 548.267,693.333 548.267,704C548.267,705.067 548.267,706.135 548.265,707.2L447.955,707.2C447.985,706.138 448,705.071 448,704C448,644.267 401.067,597.333 341.333,597.333C281.6,597.333 234.667,644.267 234.667,704C234.667,735.735 247.914,763.858 269.291,783.249C262.079,800.566 256.817,820.173 253.958,841.351C237.672,849.585 224.745,861.612 215.29,876.31ZM694.956,846.323C730.131,864.1 748.376,901.001 748.376,943.818C748.376,976.652 737.606,1006.08 716.626,1026.04L716.626,1093.92L632.203,1093.92L632.203,1052.67L333.764,1052.67L333.764,1093.92L249.342,1093.92L249.342,1026.08C228.407,1006.12 217.621,976.698 217.621,943.818C217.621,901.009 235.86,864.108 271.035,846.323C280.73,774.489 320.312,722.175 369.098,722.175L596.923,722.175C645.678,722.175 685.284,774.497 694.956,846.323ZM585.728,972.881C590.394,972.881 594.181,969.079 594.188,964.398C594.188,959.717 590.387,955.953 585.728,955.953L380.278,955.953C375.597,955.953 371.817,959.717 371.817,964.398C371.817,969.079 375.612,972.881 380.278,972.881L585.728,972.881ZM369.098,747.533C336.984,747.533 308.875,785.548 298.43,837.076C305.793,835.697 313.625,834.97 321.964,834.97L542.729,834.97C542.729,805.082 567.02,780.777 596.892,780.777C626.757,780.777 651.071,805.082 651.071,834.97C651.071,835.076 651.033,835.159 651.033,835.265C656.774,835.56 662.341,836.128 667.552,837.076C657.099,785.555 628.992,747.533 596.923,747.533L369.098,747.533ZM634.211,834.97C634.211,814.375 617.487,797.667 596.923,797.667C576.366,797.667 559.642,814.375 559.642,834.97L634.211,834.97ZM309.315,979.167C328.849,979.167 344.701,963.376 344.701,943.818C344.701,924.277 328.849,908.417 309.315,908.417C289.804,908.417 273.951,924.3 273.951,943.818C273.951,963.376 289.804,979.167 309.315,979.167ZM656.675,979.167C676.195,979.167 692.047,963.376 692.054,943.818C692.054,924.277 676.195,908.417 656.675,908.417C637.134,908.417 621.289,924.3 621.289,943.818C621.289,963.376 637.134,979.167 656.675,979.167ZM585.728,941.88C590.394,941.88 594.181,938.077 594.188,933.419C594.188,928.739 590.387,924.989 585.728,924.989L380.278,924.989C375.597,924.989 371.817,928.739 371.817,933.419C371.817,938.077 375.612,941.88 380.278,941.88L585.728,941.88Z"/>
        </g>
    </g>
</svg>
